<svg width="30" height="24" viewBox="0 0 30 24" fill="none" xmlns="http://www.w3.org/2000/svg">
  <path d="M19.5096 16.1683L21.0094 14.6686C21.2437 14.4342 21.6515 14.5983 21.6515 14.9357V21.7503C21.6515 22.9923 20.6438 24 19.4018 24H2.90421C1.66221 24 0.654541 22.9923 0.654541 21.7503V5.25275C0.654541 4.01074 1.66221 3.00308 2.90421 3.00308H15.7226C16.0554 3.00308 16.2241 3.40614 15.9898 3.64517L14.49 5.14495C14.4197 5.21525 14.326 5.25275 14.2229 5.25275H2.90421V21.7503H19.4018V16.4308C19.4018 16.3324 19.4393 16.2386 19.5096 16.1683ZM26.8491 6.71035L14.5416 19.0179L10.3047 19.4866C9.07674 19.6225 8.03159 18.5867 8.1675 17.3494L8.63618 13.1125L20.9438 0.80496C22.017 -0.26832 23.7512 -0.26832 24.8197 0.80496L26.8445 2.82966C27.9177 3.90294 27.9177 5.64175 26.8491 6.71035ZM22.2186 8.15857L19.4955 5.43553L10.7874 14.1483L10.4453 17.2088L13.5058 16.8667L22.2186 8.15857ZM25.2556 4.42318L23.2309 2.39848C23.0388 2.20632 22.7247 2.20632 22.5373 2.39848L21.089 3.8467L23.8121 6.56974L25.2603 5.12152C25.4478 4.92467 25.4478 4.61534 25.2556 4.42318Z" fill="#0B0C0C"/>
</svg>
